Coordinates
version=1
nRows=11
nColumns=40
inDegrees=yes

Units are S.I. units (second, meters, Newtons, ...)
Angles are in degrees.

endheader
time	pelvis_tilt	pelvis_list	pelvis_rotation	pelvis_tx	pelvis_ty	pelvis_tz	hip_flexion_r	hip_adduction_r	hip_rotation_r	knee_angle_r	knee_angle_r_beta	ankle_angle_r	subtalar_angle_r	mtp_angle_r	hip_flexion_l	hip_adduction_l	hip_rotation_l	knee_angle_l	knee_angle_l_beta	ankle_angle_l	subtalar_angle_l	mtp_angle_l	lumbar_extension	lumbar_bending	lumbar_rotation	arm_flex_r	arm_add_r	arm_rot_r	elbow_flex_r	pro_sup_r	wrist_flex_r	wrist_dev_r	arm_flex_l	arm_add_l	arm_rot_l	elbow_flex_l	pro_sup_l	wrist_flex_l	wrist_dev_l
      2.13000000	      0.88094127	     10.93598502	     -2.19341156	      0.74332662	      0.94215903	     -1.45369117	     -8.15017851	    -24.59872034	    -23.62530835	    -40.84213029	     -0.71282965	     -9.96056280	      2.40992217	     -7.17720957	     14.37279183	    -11.16389703	     11.64850720	    -16.15233907	     -0.28191150	     -2.50764197	      8.96250268	      0.32257215	     -1.84175620	    -12.46224608	      7.73803006	      5.30003279	     -9.54902791	    -16.48256543	     23.19443481	     89.95437384	      0.00000000	      0.00000000	     -8.21976488	     11.07965718	      4.91567874	     10.89108023	     89.95437384	      0.00000000	      0.00000000
      2.14000000	      0.68320811	     11.13976773	     -2.25464182	      0.75147339	      0.94268834	     -1.45629992	     -6.41206052	    -25.18031989	    -22.04598391	    -43.17634157	     -0.75356932	    -10.76297216	      0.65190304	     -6.73503313	     13.87380883	    -11.61371179	     11.54041510	    -15.82045319	     -0.27611900	     -2.02194059	      8.79414132	      0.51467506	     -1.58862150	    -12.62230327	      7.50136813	      4.80721682	     -9.44844695	    -16.19260269	     22.81719249	     89.95437384	      0.00000000	      0.00000000	     -7.42313676	     11.18660867	      4.90978100	     11.11557287	     89.95437384	      0.00000000	      0.00000000
      2.15000000	      0.51562986	     11.32483548	     -2.43322720	      0.75924345	      0.94321943	     -1.45881653	     -4.52584054	    -25.79431734	    -20.64534950	    -45.54279911	     -0.79487180	    -10.76394645	     -1.32336360	     -6.48569233	     13.39449746	    -12.03314569	     11.44158748	    -15.53231092	     -0.27108997	     -1.50879116	      8.67462745	      0.58093389	     -1.38931482	    -12.74740363	      7.31433410	      4.48618286	     -9.37806005	    -15.89762396	     22.23039397	     89.95437384	      0.00000000	      0.00000000	     -6.55947035	     11.24141832	      4.98330355	     11.32260232	     89.95437384	      0.00000000	      0.00000000
      2.16000000	      0.14786029	     11.31617272	     -2.53900366	      0.76648305	      0.94337934	     -1.46094015	     -2.31461569	    -26.05259119	    -19.36028624	    -47.93081947	     -0.83655061	    -10.11604220	     -3.62840706	     -6.23822825	     13.24024509	    -12.17711518	     11.40819139	    -15.40145346	     -0.26880607	     -1.16839793	      8.67025927	      0.67881699	     -1.03442078	    -12.68274813	      7.09944030	      4.17179383	     -9.30451110	    -15.59635361	     21.69029252	     89.95437384	      0.00000000	      0.00000000	     -5.71098587	     11.33045909	      5.05364790	     11.65614714	     89.95437384	      0.00000000	      0.00000000
      2.17000000	     -0.32391300	     11.33447802	     -2.82012796	      0.77358133	      0.94330819	     -1.46292530	      0.20655753	    -26.31287525	    -17.99258566	    -50.18966266	     -0.87597486	     -9.55660868	     -6.22994188	     -5.52671482	     13.26869977	    -12.30801842	     11.64808809	    -15.32989531	     -0.26755715	     -0.80133720	      8.80405026	      0.79045609	     -0.55443782	    -12.62154461	      7.00226536	      3.89247782	     -9.25725221	    -15.26491220	     21.14024872	     89.95437384	      0.00000000	      0.00000000	     -4.84688071	     11.33561176	      5.69291478	     11.97677857	     89.95437384	      0.00000000	      0.00000000
      2.18000000	     -0.24596851	     11.20579100	     -3.05275115	      0.78112184	      0.94417329	     -1.46471285	      1.77871559	    -26.35982279	    -17.04966988	    -51.91179883	     -0.90603181	     -8.48450349	     -7.89618157	     -5.30457926	     12.49417100	    -12.32957891	     11.75928266	    -14.99546129	     -0.26172017	     -0.35830853	      8.40397328	      0.71488009	     -0.69198088	    -12.42560510	      6.72440836	      3.71781797	     -9.22515341	    -14.99465422	     20.51947397	     89.95437384	      0.00000000	      0.00000000	     -3.98874989	     11.39271678	      5.82978845	     12.37959263	     89.95437384	      0.00000000	      0.00000000
      2.19000000	     -0.66958101	     11.01492757	     -3.51963984	      0.78800092	      0.94416125	     -1.46588416	      4.40463380	    -26.11789336	    -15.49985278	    -53.92567630	     -0.94118060	     -5.95887564	    -10.21076975	      7.54770024	     12.44430110	    -12.11307118	     12.43008674	    -14.86602044	     -0.25946100	     -0.17875476	      8.06491353	      0.24784071	     -0.26665022	    -12.15721372	      6.72320078	      3.55093071	     -9.15224606	    -14.90699839	     19.94194635	     89.95437384	      0.00000000	      0.00000000	     -3.13477697	     11.37597579	      6.81759789	     12.74961125	     89.95437384	      0.00000000	      0.00000000
      2.20000000	     -0.56818269	     10.80387139	     -3.90156056	      0.79541308	      0.94507700	     -1.46713045	      5.95754786	    -25.88574109	    -14.53887134	    -55.11281729	     -0.96190012	     -4.77658912	    -11.80656629	      7.40050255	     11.59584725	    -12.03141713	     12.61076388	    -14.39210095	     -0.25118955	      0.25743294	      7.87525576	      0.18706068	     -0.42699298	    -11.88486904	      6.61489820	      3.43856502	     -9.16839512	    -14.57225734	     19.21614567	     89.95437384	      0.00000000	      0.00000000	     -2.25303521	     11.45029684	      6.98609599	     13.25684162	     89.95437384	      0.00000000	      0.00000000
      2.21000000	     -0.46760281	     10.61371164	     -4.24766858	      0.80251541	      0.94599845	     -1.46852030	      7.51726947	    -25.64852930	    -13.67790846	    -56.16927343	     -0.98033876	     -3.81339567	    -13.10363386	      7.32725841	     10.76656689	    -12.00592775	     12.64857147	    -13.97588549	     -0.24392522	      0.59602493	      7.64519583	      0.09399487	     -0.63982701	    -11.61929209	      6.39854194	      3.33002287	     -9.18140863	    -14.43485312	     18.69683675	     89.95437384	      0.00000000	      0.00000000	     -1.34160818	     11.52959352	      7.20837642	     13.72603661	     89.95437384	      0.00000000	      0.00000000
      2.22000000	     -0.44412523	     10.36881111	     -4.59296175	      0.80959008	      0.94685777	     -1.46968258	      9.06931371	    -25.26131225	    -12.88589099	    -56.87562747	     -0.99266696	     -2.87405315	    -14.25981033	      7.36927816	     10.00369559	    -11.88928183	     12.86640983	    -13.48701617	     -0.23539284	      0.88032586	      7.50992460	      0.01534454	     -0.76781779	    -11.30973995	      6.24333887	      3.17015060	     -9.18963977	    -14.32749397	     18.23261647	     89.95437384	      0.00000000	      0.00000000	     -0.44251860	     11.59953820	      7.52056677	     14.28629813	     89.95437384	      0.00000000	      0.00000000
      2.23000000	     -0.57679635	     10.06750887	     -4.98529305	      0.81628658	      0.94748119	     -1.47070025	     10.85942748	    -24.66631209	    -11.98136774	    -57.43818883	     -1.00248551	     -2.02528383	    -15.53560106	      8.84413925	      9.50654546	    -11.65416080	     13.42289695	    -13.12687833	     -0.22910725	      1.02485044	      7.31932257	     -0.22722265	     -0.76333273	    -10.91764771	      6.09227400	      3.07466901	     -9.22590387	    -14.15976565	     17.82689245	     89.95437384	      0.00000000	      0.00000000	      0.52011190	     11.57106161	      8.68331437	     14.72364774	     89.95437384	      0.00000000	      0.00000000
